<svg id="chamomile" width="49" height="49" viewBox="0 0 49 49" fill="none" xmlns="http://www.w3.org/2000/svg">
<circle cx="24.484" cy="24.3513" r="5.53342" fill="white"/>
<path d="M22.1721 45.9816C20.9854 43.4348 20.8067 39.4122 22.1852 35.8535C22.6893 34.5518 23.1455 33.6121 23.5666 33.0055C24.0054 32.3735 24.3127 32.2362 24.4873 32.2362C24.662 32.2362 24.9693 32.3735 25.4081 33.0055C25.8292 33.6121 26.2853 34.5518 26.7895 35.8535C28.2314 39.5761 27.9906 43.4319 26.8025 45.9816C26.0485 47.5998 25.1798 48.1945 24.4873 48.1945C23.7949 48.1945 22.9262 47.5998 22.1721 45.9816Z" fill="white" stroke="white"/>
<path d="M2.86971 26.6791C5.41657 27.8658 9.43908 28.0445 12.9979 26.666C14.2995 26.1618 15.2392 25.7057 15.8458 25.2846C16.4778 24.8458 16.6151 24.5385 16.6151 24.3638C16.6151 24.1892 16.4778 23.8819 15.8458 23.4431C15.2393 23.022 14.2995 22.5659 12.9979 22.0617C9.27523 20.6198 5.41944 20.8606 2.86971 22.0487C1.25155 22.8027 0.656822 23.6714 0.656822 24.3639C0.656822 25.0563 1.25155 25.925 2.86971 26.6791Z" fill="white" stroke="white"/>
<path d="M46.1303 26.6791C43.5834 27.8658 39.5609 28.0445 36.0021 26.666C34.7005 26.1618 33.7608 25.7057 33.1542 25.2846C32.5222 24.8458 32.3849 24.5385 32.3849 24.3638C32.3849 24.1892 32.5222 23.8819 33.1542 23.4431C33.7607 23.022 34.7005 22.5659 36.0021 22.0617C39.7248 20.6198 43.5806 20.8606 46.1303 22.0487C47.7484 22.8027 48.3432 23.6714 48.3432 24.3639C48.3432 25.0563 47.7484 25.925 46.1303 26.6791Z" fill="white" stroke="white"/>
<path d="M10.8511 41.2922C13.4912 40.3305 16.4619 37.6125 18.0036 34.1213C18.5674 32.8444 18.9094 31.8574 19.0405 31.1307C19.1772 30.3735 19.0569 30.0591 18.9335 29.9356C18.81 29.8121 18.4956 29.6919 17.7384 29.8285C17.0117 29.9597 16.0247 30.3017 14.7478 30.8655C11.0959 32.4783 8.53975 35.375 7.57693 38.018C6.96589 39.6954 7.15961 40.7302 7.64927 41.2198C8.13892 41.7095 9.17372 41.9032 10.8511 41.2922Z" fill="white" stroke="white"/>
<path d="M41.4409 10.7024C40.4791 13.3425 37.7611 16.3132 34.27 17.8549C32.9931 18.4188 32.006 18.7608 31.2794 18.8919C30.5222 19.0285 30.2078 18.9083 30.0843 18.7848C29.9608 18.6613 29.8406 18.3469 29.9772 17.5897C30.1083 16.8631 30.4503 15.876 31.0142 14.5991C32.6269 10.9473 35.5236 8.39107 38.1667 7.42825C39.8441 6.8172 40.8789 7.01093 41.3685 7.50058C41.8582 7.99023 42.0519 9.02504 41.4409 10.7024Z" fill="white" stroke="white"/>
<mask id="path-7-inside-1" fill="white">
<path d="M27.2557 13.0298C28.7423 9.19198 28.5064 5.19394 27.2557 2.50989C25.7014 -0.825724 23.2732 -0.825724 21.7189 2.50989C20.4682 5.19394 20.2971 9.35907 21.7189 13.0298C23.7521 18.2787 25.2227 18.2787 27.2557 13.0298Z"/>
</mask>
<path d="M27.2557 13.0298C28.7423 9.19198 28.5064 5.19394 27.2557 2.50989C25.7014 -0.825724 23.2732 -0.825724 21.7189 2.50989C20.4682 5.19394 20.2971 9.35907 21.7189 13.0298C23.7521 18.2787 25.2227 18.2787 27.2557 13.0298Z" fill="white"/>
<path d="M27.2557 2.50989L28.1622 2.08752L27.2557 2.50989ZM21.7189 2.50989L20.8125 2.08752L21.7189 2.50989ZM21.7189 13.0298L20.7864 13.391L20.7864 13.391L21.7189 13.0298ZM27.2557 13.0298L26.3232 12.6686L27.2557 13.0298ZM20.8125 2.08752C19.4339 5.04598 19.2779 9.49634 20.7864 13.391L22.6514 12.6686C21.3163 9.2218 21.5025 5.34191 22.6254 2.93225L20.8125 2.08752ZM28.1882 13.391C29.764 9.32278 29.538 5.04023 28.1622 2.08752L26.3493 2.93225C27.4748 5.34766 27.7205 9.06119 26.3232 12.6686L28.1882 13.391ZM20.7864 13.391C21.3029 14.7244 21.8101 15.7974 22.3345 16.5526C22.8234 17.2569 23.5227 17.9665 24.4873 17.9665C25.452 17.9665 26.1512 17.2569 26.6402 16.5526C27.1646 15.7974 27.6717 14.7244 28.1882 13.391L26.3232 12.6686C25.8232 13.9596 25.3841 14.855 24.9974 15.412C24.5753 16.0199 24.3986 15.9665 24.4873 15.9665C24.5761 15.9665 24.3994 16.0199 23.9773 15.412C23.5906 14.855 23.1515 13.9596 22.6514 12.6686L20.7864 13.391ZM28.1622 2.08752C27.3387 0.320431 26.0893 -0.991821 24.4873 -0.991821C22.8854 -0.991821 21.6359 0.320431 20.8125 2.08752L22.6254 2.93225C23.3562 1.36373 24.098 1.00818 24.4873 1.00818C24.8766 1.00818 25.6184 1.36373 26.3493 2.93225L28.1622 2.08752Z" fill="white" mask="url(#path-7-inside-1)"/>
<path d="M41.4409 38.0002C40.4791 35.3602 37.7611 32.3895 34.27 30.8477C32.9931 30.2839 32.006 29.9419 31.2794 29.8108C30.5222 29.6742 30.2078 29.7944 30.0843 29.9179C29.9608 30.0413 29.8406 30.3557 29.9772 31.1129C30.1083 31.8396 30.4503 32.8266 31.0142 34.1035C32.6269 37.7554 35.5236 40.3116 38.1667 41.2744C39.8441 41.8854 40.8789 41.6917 41.3685 41.2021C41.8582 40.7124 42.0519 39.6776 41.4409 38.0002Z" fill="white" stroke="white"/>
<path d="M10.851 7.41046C13.491 8.37219 16.4617 11.0902 18.0034 14.5814C18.5673 15.8582 18.9093 16.8453 19.0404 17.5719C19.177 18.3291 19.0568 18.6435 18.9333 18.767C18.8099 18.8905 18.4955 19.0107 17.7383 18.8741C17.0116 18.743 16.0246 18.401 14.7477 17.8371C11.0958 16.2244 8.53962 13.3277 7.57681 10.6846C6.96576 9.00725 7.15949 7.97244 7.64914 7.48279C8.13879 6.99314 9.17359 6.79941 10.851 7.41046Z" fill="white" stroke="white"/>
<mask id="path-11-inside-2" fill="white">
<path fill-rule="evenodd" clip-rule="evenodd" d="M29.861 13.5276C32.2258 11.0071 33.3857 7.59875 33.2631 5.24626C33.2246 4.50848 33.0877 4.05175 32.9652 3.80559C32.9284 3.73165 32.8974 3.6844 32.8752 3.65552C32.8392 3.66088 32.784 3.67331 32.7062 3.70094C32.4471 3.79294 32.0313 4.02635 31.4911 4.53035C29.7595 6.14606 28.2379 9.22965 28.1857 12.8508C28.172 13.8018 28.2036 14.5274 28.266 15.0637C28.6834 14.7212 29.2102 14.2212 29.861 13.5276ZM32.9296 3.65266C32.9295 3.65291 32.9262 3.65286 32.9202 3.65177C32.9267 3.65187 32.9297 3.65241 32.9296 3.65266ZM32.8454 3.62154C32.8403 3.61815 32.838 3.61594 32.8381 3.61569C32.8382 3.61544 32.8407 3.61714 32.8454 3.62154ZM30.1267 3.06802C27.9616 5.08812 26.2453 8.70669 26.1859 12.8219C26.1047 18.4502 27.4682 19.0011 31.3195 14.8961C34.0129 12.0252 35.4145 8.09928 35.2604 5.14215C35.0688 1.46717 32.8174 0.557548 30.1267 3.06802Z"/>
</mask>
<path d="M33.2631 5.24626L31.2658 5.35038L31.2658 5.35038L33.2631 5.24626ZM29.861 13.5276L28.4024 12.1592L28.4024 12.1592L29.861 13.5276ZM32.9652 3.80559L34.7558 2.91465L34.7558 2.91465L32.9652 3.80559ZM32.8752 3.65552L34.461 2.4368L33.7443 1.5043L32.581 1.67727L32.8752 3.65552ZM32.7062 3.70094L33.3753 5.58568L33.3754 5.58568L32.7062 3.70094ZM31.4911 4.53035L32.8555 5.99268L32.8555 5.99268L31.4911 4.53035ZM28.1857 12.8508L26.1859 12.8219L26.1859 12.8219L28.1857 12.8508ZM28.266 15.0637L26.2793 15.2946L26.7023 18.9339L29.5346 16.6098L28.266 15.0637ZM32.9296 3.65266L31.0874 2.87385L31.0874 2.87396L32.9296 3.65266ZM32.9202 3.65177L32.9509 1.65201L32.5646 5.6199L32.9202 3.65177ZM32.8454 3.62154L31.734 5.28429L34.2124 2.16161L32.8454 3.62154ZM32.8381 3.61569L30.962 2.92249L30.962 2.92269L32.8381 3.61569ZM26.1859 12.8219L24.1861 12.7931L24.1861 12.7931L26.1859 12.8219ZM30.1267 3.06802L28.7623 1.60569L28.7623 1.60569L30.1267 3.06802ZM31.3195 14.8961L32.7781 16.2645L32.7781 16.2645L31.3195 14.8961ZM35.2604 5.14215L37.2577 5.03803L37.2577 5.03803L35.2604 5.14215ZM31.2658 5.35038C31.3569 7.09886 30.4381 9.9894 28.4024 12.1592L31.3195 14.8961C34.0134 12.0247 35.4145 8.09864 35.2604 5.14215L31.2658 5.35038ZM31.1746 4.69652C31.1524 4.65188 31.1698 4.67321 31.1962 4.78833C31.2216 4.89913 31.2518 5.08187 31.2658 5.35038L35.2604 5.14215C35.2125 4.2232 35.0358 3.47736 34.7558 2.91465L31.1746 4.69652ZM31.2894 4.87425C31.2201 4.78403 31.1851 4.71768 31.1746 4.69652L34.7558 2.91465C34.6717 2.74562 34.5747 2.58478 34.461 2.4368L31.2894 4.87425ZM33.3754 5.58568C33.3531 5.59357 33.2819 5.61704 33.1693 5.63377L32.581 1.67727C32.3964 1.70473 32.2149 1.75305 32.037 1.81621L33.3754 5.58568ZM32.8555 5.99268C33.0521 5.80925 33.2008 5.69879 33.296 5.63673C33.395 5.57225 33.4223 5.569 33.3753 5.58568L32.037 1.8162C31.4447 2.02649 30.7995 2.44026 30.1267 3.06802L32.8555 5.99268ZM30.1855 12.8797C30.2306 9.75317 31.5569 7.20435 32.8555 5.99268L30.1267 3.06802C27.962 5.08776 26.2453 8.70612 26.1859 12.8219L30.1855 12.8797ZM30.2526 14.8328C30.2038 14.4128 30.1725 13.7806 30.1855 12.8797L26.1859 12.8219C26.1715 13.8229 26.2035 14.6419 26.2793 15.2946L30.2526 14.8328ZM28.4024 12.1592C27.7859 12.8163 27.3242 13.2493 26.9973 13.5176L29.5346 16.6098C30.0426 16.193 30.6346 15.6261 31.3195 14.8961L28.4024 12.1592ZM31.0874 2.87396C31.2662 2.45102 31.544 2.19425 31.716 2.06294C31.8932 1.92768 32.0562 1.85036 32.1532 1.80952C32.3436 1.72931 32.5032 1.69759 32.5671 1.68582C32.7109 1.65933 32.8253 1.65508 32.8645 1.65382C32.9634 1.65063 33.0409 1.65565 33.0759 1.65826C33.1592 1.66448 33.2277 1.67494 33.2759 1.68365L32.5646 5.6199C32.6188 5.62969 32.6918 5.64072 32.7783 5.64717C32.8149 5.6499 32.8936 5.65495 32.9933 5.65174C33.0329 5.65047 33.1476 5.64619 33.2917 5.61965C33.3557 5.60786 33.5153 5.57613 33.7058 5.49588C33.7778 5.46559 34.4447 5.20511 34.7717 4.43137L31.0874 2.87396ZM32.8895 5.65154C32.8477 5.6509 32.7803 5.64851 32.6971 5.63886C32.665 5.63514 32.5776 5.62454 32.4679 5.59854C32.433 5.59028 32.2807 5.55485 32.0997 5.4723C32.0331 5.44194 31.7786 5.32586 31.5271 5.07854C31.3936 4.9472 31.1709 4.69163 31.0368 4.29875C30.8853 3.85497 30.8875 3.34676 31.0874 2.87385L34.7717 4.43147C35.2404 3.32285 34.5846 2.47515 34.3319 2.22668C34.0804 1.97933 33.8259 1.86321 33.7592 1.83281C33.578 1.75019 33.4254 1.71467 33.3902 1.70632C33.2798 1.68015 33.1912 1.66936 33.1576 1.66546C33.0713 1.65545 32.9991 1.65275 32.9509 1.65201L32.8895 5.65154ZM33.9568 1.95879C33.9975 1.98601 34.0539 2.02596 34.118 2.07922C34.145 2.10167 34.204 2.15168 34.2726 2.22225C34.2999 2.25028 34.3785 2.33204 34.463 2.44982C34.5007 2.50226 34.5924 2.63402 34.6735 2.8212C34.7147 2.91646 34.7781 3.08249 34.8129 3.29927C34.8464 3.50884 34.8717 3.88208 34.7142 4.3087L30.962 2.92269C30.6746 3.70071 30.9726 4.34074 31.0027 4.41032C31.0837 4.59756 31.1755 4.72941 31.2132 4.78193C31.2979 4.89989 31.3768 4.9819 31.4043 5.01022C31.4735 5.08138 31.5333 5.1322 31.5616 5.15566C31.6281 5.21092 31.6882 5.25368 31.734 5.28429L33.9568 1.95879ZM34.7141 4.3089C34.5382 4.78499 34.1952 5.15959 33.7757 5.38225C33.4041 5.5795 33.0617 5.61228 32.8708 5.6154C32.5125 5.62126 32.2443 5.52689 32.1751 5.50255C31.9855 5.43592 31.8499 5.35479 31.8192 5.3366C31.7218 5.27888 31.6512 5.22557 31.6256 5.20601C31.559 5.15509 31.5089 5.10997 31.4784 5.08147L34.2124 2.16161C34.1772 2.1287 34.1234 2.08053 34.0543 2.02773C34.0275 2.00723 33.956 1.95326 33.8579 1.89516C33.8269 1.87678 33.6911 1.79552 33.5014 1.72883C33.432 1.70446 33.1637 1.61008 32.8054 1.61593C32.4337 1.62201 31.3782 1.79611 30.962 2.92249L34.7141 4.3089ZM28.1857 12.8508C28.2379 9.22965 29.7595 6.14606 31.4911 4.53035L28.7623 1.60569C26.1638 4.03018 24.2526 8.18373 24.1861 12.7931L28.1857 12.8508ZM29.861 13.5276C28.9292 14.5207 28.2515 15.1168 27.7853 15.4223C27.5555 15.5728 27.46 15.5968 27.4785 15.592C27.5166 15.5821 27.7381 15.5378 28.0272 15.6546C28.3163 15.7714 28.4449 15.9572 28.4654 15.9908C28.4754 16.007 28.4234 15.9235 28.3627 15.6556C28.2395 15.112 28.166 14.2124 28.1857 12.8508L24.1861 12.7931C24.1651 14.2456 24.2317 15.5255 24.4617 16.5399C24.6642 17.4332 25.146 18.8047 26.5288 19.3634C27.9115 19.922 29.2109 19.2702 29.9771 18.7683C30.8472 18.1983 31.7842 17.3239 32.7781 16.2645L29.861 13.5276ZM33.2631 5.24627C33.3857 7.59875 32.2258 11.0071 29.861 13.5276L32.7781 16.2645C35.8001 13.0434 37.4433 8.5998 37.2577 5.03803L33.2631 5.24627ZM31.4911 4.53035C32.0313 4.02635 32.4471 3.79294 32.7062 3.70094C32.9481 3.61505 32.9709 3.67602 32.8815 3.63991C32.7921 3.6038 32.8508 3.57575 32.9652 3.80559C33.0877 4.05175 33.2246 4.50848 33.2631 5.24627L37.2577 5.03803C37.1505 2.98177 36.4274 0.758399 34.3799 -0.0688263C32.3325 -0.896052 30.2678 0.201009 28.7623 1.60569L31.4911 4.53035Z" fill="white" mask="url(#path-11-inside-2)"/>
<path d="M14.4052 5.36738C14.3132 8.0242 15.6578 11.6684 18.2335 14.3196C19.1983 15.3126 19.9523 15.9652 20.5259 16.3268C20.9409 16.5884 21.1431 16.6247 21.2085 16.6295C21.2505 16.5791 21.3648 16.4085 21.4649 15.9282C21.6032 15.2644 21.6576 14.2687 21.6135 12.8849C21.4901 9.01825 19.8129 5.69593 17.8331 3.91232C16.5475 2.75406 15.7258 2.71661 15.3674 2.86873C15.009 3.02085 14.4651 3.63797 14.4052 5.36738Z" stroke="white" stroke-width="2"/>
<path d="M31.1435 44.8002C29.1685 43.0208 27.481 39.5221 27.3632 35.8277C27.3191 34.4439 27.3735 33.4481 27.5118 32.7843C27.6119 32.3041 27.7263 32.1334 27.7682 32.0831C27.8336 32.0879 28.0358 32.1241 28.4508 32.3857C29.0244 32.7473 29.7784 33.3999 30.7432 34.3929C33.4389 37.1676 34.6637 40.682 34.5715 43.3451C34.5116 45.0746 33.9677 45.6917 33.6093 45.8438C33.2509 45.9959 32.4292 45.9585 31.1435 44.8002Z" stroke="white" stroke-width="2"/>
<path d="M5.51606 34.446C8.17288 34.538 11.8171 33.1934 14.4683 30.6177C15.4612 29.6529 16.1139 28.8989 16.4755 28.3253C16.7371 27.9103 16.7733 27.7081 16.7781 27.6427C16.7278 27.6007 16.5571 27.4864 16.0769 27.3863C15.4131 27.2479 14.4173 27.1936 13.0336 27.2377C9.16693 27.3611 5.84462 29.0382 4.061 31.0181C2.90274 32.3037 2.86529 33.1254 3.01741 33.4838C3.16953 33.8422 3.78665 34.3861 5.51606 34.446Z" stroke="white" stroke-width="2"/>
<path d="M44.9489 17.7078C43.1695 19.6829 39.6708 21.3703 35.9763 21.4881C34.5926 21.5322 33.5968 21.4779 32.933 21.3395C32.4527 21.2394 32.2821 21.125 32.2317 21.0831C32.2365 21.0177 32.2728 20.8155 32.5344 20.4005C32.896 19.8269 33.5486 19.0729 34.5416 18.1081C37.3163 15.4124 40.8307 14.1876 43.4938 14.2798C45.2232 14.3398 45.8404 14.8836 45.9925 15.242C46.1446 15.6004 46.1071 16.4221 44.9489 17.7078Z" stroke="white" stroke-width="2"/>
<path d="M18.2143 44.913C20.158 43.0994 21.7841 39.5718 21.8374 35.8759C21.8574 34.4915 21.7857 33.4968 21.6358 32.8356C21.5273 32.3571 21.41 32.1885 21.3671 32.1389C21.3018 32.1448 21.1003 32.1846 20.69 32.4534C20.1228 32.825 19.3802 33.4907 18.433 34.5004C15.786 37.3217 14.6228 40.8569 14.7615 43.518C14.8516 45.2461 15.4061 45.8536 15.7671 45.9995C16.1281 46.1453 16.949 46.0935 18.2143 44.913Z" stroke="white" stroke-width="2"/>
<path d="M45.0616 30.6369C43.248 28.6932 39.7204 27.0671 36.0244 27.0138C34.6401 26.9938 33.6454 27.0655 32.9841 27.2154C32.5057 27.3239 32.3371 27.4412 32.2874 27.4841C32.2934 27.5494 32.3332 27.7509 32.602 28.1612C32.9735 28.7284 33.6392 29.471 34.6489 30.4182C37.4702 33.0651 41.0054 34.2284 43.6666 34.0897C45.3947 33.9996 46.0022 33.445 46.148 33.0841C46.2939 32.7231 46.2421 31.9022 45.0616 30.6369Z" stroke="white" stroke-width="2"/>
<path d="M5.34265 14.5896C7.99745 14.4512 11.6646 15.732 14.3603 18.2611C15.37 19.2083 16.0357 19.9509 16.4072 20.5181C16.676 20.9284 16.7158 21.13 16.7217 21.1953C16.6721 21.2381 16.5035 21.3554 16.0251 21.4639C15.3638 21.6138 14.3691 21.6855 12.9848 21.6655C9.11661 21.6097 5.76553 19.9908 3.94763 18.0424C2.76711 16.7771 2.71533 15.9562 2.86117 15.5952C3.00701 15.2342 3.61454 14.6797 5.34265 14.5896Z" stroke="white" stroke-width="2"/>
</svg>
