<svg id="leaf" width="35" height="52" viewBox="0 0 35 52" fill="none" xmlns="http://www.w3.org/2000/svg">
<path fill-rule="evenodd" clip-rule="evenodd" d="M30.9955 0.742567C28.0807 10.9432 20.647 15.3069 13.8734 19.283C5.12606 24.4177 -2.52027 28.9062 2.08829 44.4842C2.55502 39.5765 6.21069 32.5522 19.3886 24.5513C12.6452 29.1491 9.00874 33.747 7.14953 37.8199C2.67292 45.095 5.54306 50.2042 6.41116 51.4648C6.54688 51.6619 6.77384 51.7675 7.01314 51.7675C7.64551 51.7675 8.07854 51.0557 7.85573 50.4639C7.51602 49.5616 7.13176 48.2242 6.99868 46.5574C23.4162 48.496 40.8837 31.8205 31.3925 0.733721C31.3339 0.541635 31.0507 0.549457 30.9955 0.742567Z" fill="#FAFAFA"/>
</svg>
