<svg width="59" height="59" viewBox="0 0 59 59" fill="none" xmlns="http://www.w3.org/2000/svg">
<path fill-rule="evenodd" clip-rule="evenodd" d="M2.40814 37.5322C1.57704 38.3633 1.54524 39.7573 2.46253 40.5926C12.509 49.7409 29.1823 49.4281 39.5566 39.0538C49.9309 28.6795 50.2436 12.0062 41.0954 1.95975C40.2601 1.04246 38.866 1.07426 38.0349 1.90537L34.382 5.55834C35.163 4.77729 36.4373 4.7718 37.1453 5.61963C37.1785 5.65938 37.2116 5.69923 37.2444 5.73916C40.6314 9.85343 42.2986 14.9086 42.2462 19.9493L42.2706 20.6358L42.2284 20.6373C42.0074 25.9643 39.8633 31.2263 35.7962 35.2935C31.7291 39.3606 26.4672 41.5046 21.1403 41.7256L21.1388 41.7676L20.4579 41.7434C15.4153 41.7972 10.3578 40.13 6.24188 36.7417C6.20195 36.7088 6.16211 36.6758 6.12235 36.6426C5.27452 35.9346 5.28002 34.6603 6.06107 33.8792L2.40814 37.5322ZM36.34 31.3501C35.668 32.279 34.3341 32.3097 33.5235 31.499L23.3333 21.3089L37.8937 20.7914C39.0648 20.7498 40.0294 21.7224 39.844 22.8795C39.3638 25.8767 38.1958 28.785 36.34 31.3501ZM32.0018 33.0207C32.8125 33.8313 32.7817 35.1652 31.8529 35.8372C29.2879 37.693 26.3796 38.861 23.3825 39.3412C22.2254 39.5266 21.2527 38.562 21.2944 37.391L21.8118 22.8307L32.0018 33.0207ZM38.0179 18.6337L23.8463 19.1373L34.1401 8.8435C34.9811 8.00254 36.3742 8.07383 37.0118 9.07778C38.475 11.3818 39.4175 13.9214 39.8393 16.5288C40.0185 17.6365 39.1393 18.5938 38.0179 18.6337ZM19.1367 37.5152L19.6403 23.3433L9.34623 33.6374C8.50526 34.4783 8.57655 35.8715 9.58051 36.5091C11.8846 37.9724 14.4243 38.9149 17.0318 39.3366C18.1395 39.5158 19.0968 38.6366 19.1367 37.5152Z" fill="white"/>
</svg>
