<svg id="rose" width="25" height="64" viewBox="0 0 25 64" fill="none" xmlns="http://www.w3.org/2000/svg">
<path d="M11.3123 1.63522C12.5405 0.766611 14.1831 0.766611 15.4113 1.63522L16.8951 2.68453C15.7159 3.14302 14.5238 3.73795 13.3617 4.46433C12.1998 3.73795 11.0077 3.14302 9.82846 2.68453L11.3123 1.63522Z" fill="white"/>
<path d="M5.22405 4.21236C5.22405 3.68189 5.62475 3.40392 5.96674 3.45613C8.28373 3.80987 10.924 4.87553 13.3617 6.59424C15.7996 4.87553 18.4397 3.80987 20.7568 3.45613C21.0987 3.40392 21.4995 3.68189 21.4995 4.21236V6.41328C18.8596 7.03854 16.0482 8.22075 13.3617 9.92565C11.0855 8.48101 8.71942 7.41167 6.44402 6.73842C6.03412 6.61715 5.62703 6.50871 5.22405 6.41328V4.21236Z" fill="white"/>
<path d="M24.7887 18.1958C24.7887 17.8297 24.5045 17.5883 24.21 17.6049C18.6359 17.9184 11.615 19.9561 6.63749 23.4423C5.29912 24.3796 4.67993 25.384 4.49946 26.304C4.31856 27.2255 4.55146 28.1951 5.17336 29.116C6.4346 30.9836 9.22952 32.5152 12.6001 32.5152C19.3317 32.5152 24.7887 27.0582 24.7887 20.3266V18.1958Z" fill="white"/>
<path d="M1.93462 9.1997C1.93462 8.31213 2.62531 7.74201 3.32022 7.84811C8.20313 8.59361 14.1033 11.6128 18.4808 16.6195C13.9989 17.592 9.30882 19.4045 5.61934 21.9886C4.14263 23.0228 3.21969 24.251 2.84954 25.576C2.26057 24.1982 1.93462 22.6813 1.93462 21.0882V9.1997Z" fill="white"/>
<path d="M24.1102 15.8329C22.9507 15.8982 21.7316 16.0339 20.4809 16.2386C18.8351 14.2135 16.9549 12.4691 14.9688 11.0202C17.8094 9.32487 20.7559 8.25228 23.4034 7.84811C24.0982 7.74201 24.7889 8.31213 24.7889 9.1997V15.8937C24.6525 15.8606 24.5109 15.8396 24.365 15.8322C24.2813 15.8279 24.1964 15.8281 24.1102 15.8329Z" fill="white"/>
<path d="M12.3909 34.2881V62.4844C12.3909 62.9746 12.7883 63.3719 13.2783 63.3719C13.7684 63.3719 14.1657 62.9746 14.1657 62.4844V34.1904C13.6531 34.2561 13.1306 34.2901 12.6001 34.2901C12.5301 34.2901 12.4604 34.2894 12.3909 34.2881Z" fill="white"/>
<path d="M5.41937 44.9102H0.159912V48.9529C0.159912 51.8936 2.54374 54.2774 5.48436 54.2774H10.7438V50.2347C10.7438 47.2941 8.35999 44.9102 5.41937 44.9102Z" fill="white"/>
</svg>
