<svg id="rosemary" width="60" height="59" viewBox="0 0 60 59" fill="none" xmlns="http://www.w3.org/2000/svg">
<path d="M34.6165 7.86265C37.021 4.37678 41.8785 -0.197379 41.8785 1.18346C41.8786 2.57912 40.394 4.85193 36.9161 7.97443C35.6958 9.06998 34.4455 10.7667 33.3145 12.4738C35.9096 9.74328 38.8653 8.73934 39.9932 9.78036C40.5837 10.3254 39.9831 10.6079 38.8201 11.1548C37.5872 11.7346 35.7221 12.6117 33.9745 14.414C32.7176 15.7102 31.6699 17.1139 30.8271 18.3256C29.6019 21.4583 28.3736 24.3733 27.3869 26.384C25.6913 31.7973 23.1844 36.4063 20.2889 40.4161C21.0277 39.8185 21.8215 39.1775 22.6577 38.5037C23.0302 37.9467 23.5008 37.2783 24.0278 36.5298C25.959 33.7867 28.6483 29.9669 30.0503 26.6086C32.5525 20.6152 35.3668 15.8023 36.9527 15.2516C37.7917 14.9603 36.7845 17.3328 35.3488 20.3388C36.0688 19.5852 36.8008 18.7132 37.5102 17.8682C39.3047 15.7306 40.9545 13.7653 41.9007 14.323C42.7023 14.7955 41.9654 16.488 40.5612 18.4351C44.266 15.9672 48.9759 13.2579 48.7765 14.6519C48.6078 15.8308 46.9904 16.8833 43.8664 18.9161C43.1329 19.3934 42.3163 19.9248 41.416 20.5244C39.2893 21.9409 36.6855 24.048 34.4333 25.8704L34.4317 25.8718C33.847 26.3449 33.2855 26.7992 32.7629 27.2168C32.2971 27.8467 31.8623 28.4603 31.4674 29.0177C31.1263 29.4991 30.8149 29.9385 30.5388 30.3105C29.7255 31.7027 28.668 33.1812 27.571 34.5607C30.6924 32.0668 34.0272 29.4251 37.1327 27.0097C49.2015 17.6229 49.8532 17.9942 49.559 19.647C49.326 20.956 46.949 22.8915 43.2258 25.3362C44.2068 24.9276 45.1516 24.5885 46.0041 24.3598C51.0132 23.0159 60.2617 21.7621 59.4533 23.0454C59.0097 23.7495 57.8318 23.9091 55.8213 24.1816C54.1674 24.4057 51.9501 24.7062 49.1149 25.4489C45.7532 26.3296 41.3311 28.2317 37.9419 29.6895C36.7935 30.1835 35.7637 30.6265 34.9339 30.9614C32.2636 32.9512 29.0859 35.4015 26.0354 37.7537L26.0344 37.7545C22.4639 40.5076 19.0678 43.1263 16.8636 44.7149C12.9013 49.2565 8.57199 52.961 4.73433 56.2449C3.94483 56.9204 3.17612 57.5782 2.43572 58.2218C2.09878 58.5146 1.59902 58.5095 1.26676 58.2114C0.875738 57.8604 0.87978 57.2446 1.27244 56.8955C2.01802 56.2326 2.74938 55.5862 3.46708 54.9518C6.24411 52.4971 8.81678 50.2231 11.2158 47.8808C11.3272 46.4984 11.5393 43.8643 11.8042 40.5625C7.80817 34.6368 4.78393 17.9913 4.26136 11.9782C5.38521 8.06575 10.3046 25.3398 12.2314 35.229L12.3116 34.2255C12.0494 33.3074 12.0063 30.5823 11.9555 27.3699C11.9031 24.0629 11.8427 20.2396 11.5266 17.3398C11.3928 16.1123 11.2605 15.0082 11.1416 14.0164C10.6353 9.79186 10.3731 7.6041 11.2823 6.59329C12.2778 5.48656 13.273 10.643 13.8519 15.4234C15.0996 3.87643 17.0628 3.79516 17.9946 5.0078C18.625 5.82813 18.0713 7.86196 17.2726 10.7959C16.7752 12.6229 16.1828 14.799 15.7222 17.2484C15.1524 20.2778 14.5387 27.6908 13.9678 34.5871C13.5902 39.1493 13.2312 43.4853 12.9161 46.1766C15.1585 43.8644 17.2458 41.432 19.2062 38.6534C19.0744 37.6774 19.0798 35.6835 19.086 33.3859C19.0934 30.6716 19.1019 27.5334 18.8866 25.1491C18.7955 24.1397 18.7037 23.2315 18.6212 22.4158C18.27 18.9415 18.0881 17.1428 18.8495 16.3272C19.4165 15.7199 20.2955 18.192 20.9814 21.1808C21.934 14.9493 23.2595 9.23574 24.4578 8.69929C25.0341 8.44128 25.2568 9.58581 25.2329 11.5537C26.6976 8.88648 28.6925 7.41691 29.9261 7.91563C30.6488 8.20782 30.3138 8.54367 29.5175 9.34174C28.6228 10.2386 27.1457 11.7191 25.933 14.3772C25.5054 15.3145 25.1376 16.209 24.8178 17.0399C24.1072 23.2082 22.6219 31.2012 21.4236 35.2644C22.8241 32.9539 24.1594 30.3993 25.4415 27.5054C26.5377 21.8844 34.0902 3.50366 35.9724 1.59347C36.7168 0.837957 35.9847 3.71463 34.6165 7.86265Z" fill="#FAFAFA"/>
<path d="M3.03987 1.68444C3.9207 0.25529 6.22884 6.6632 7.67042 11.6462C8.15062 13.3061 8.57176 15.7402 8.89381 18.2622C7.59386 13.8256 6.03277 10.2184 4.51067 9.52532C4.46346 9.50382 4.41779 9.48606 4.37364 9.47196L4.23171 9.01212C2.97644 4.94668 2.32654 2.84184 3.03987 1.68444Z" fill="#FAFAFA"/>
</svg>
