<svg id="tea-tree" width="43" height="66" viewBox="0 0 43 66" fill="none" xmlns="http://www.w3.org/2000/svg">
<path d="M31.7567 38.1646C25.9654 40.597 22.0064 43.4762 20.0191 45.1166C19.6181 45.4477 19.0226 45.0547 19.2236 44.5752C20.541 41.4326 23.8687 35.163 30.2451 32.5273C37.5637 29.5022 41.5859 32.1386 41.6613 34.1688C41.7368 36.1991 37.9904 35.5463 31.7567 38.1646Z" fill="#FAFAFA"/>
<path d="M9.48829 40.5661C14.1241 44.8046 16.8841 48.8475 18.2039 51.0609C18.4702 51.5075 19.1631 51.3377 19.1351 50.8185C18.9515 47.416 17.9263 40.3924 12.8078 35.7656C6.93302 30.4552 2.25845 31.5852 1.50458 33.4718C0.750698 35.3585 4.49841 36.0037 9.48829 40.5661Z" fill="#FAFAFA"/>
<path d="M32.6732 28.7387C26.974 31.3797 23.1221 34.4005 21.1956 36.112C20.8068 36.4574 20.1975 36.0863 20.381 35.5998C21.5834 32.4115 24.6815 26.0253 30.9581 23.16C38.1621 19.8713 42.2773 22.36 42.4263 24.3862C42.5754 26.4124 38.8077 25.896 32.6732 28.7387Z" fill="#FAFAFA"/>
<path d="M11.2042 31.8051C15.6926 36.2994 18.2077 40.4968 19.3134 42.6123C19.5061 42.981 20.0668 42.8733 20.0687 42.4573C20.0825 39.3116 19.5233 32.1709 14.6195 27.3162C9.18068 21.9317 4.61817 22.8177 3.80762 24.606C2.99707 26.3944 6.58692 27.1817 11.2042 31.8051Z" fill="#FAFAFA"/>
<path d="M33.3318 19.88C28.4151 22.5874 25.2056 25.5239 23.6665 27.1115C23.377 27.4101 22.8688 27.1478 22.9858 26.7486C23.8066 23.9471 26.1095 18.0457 31.4977 15.1185C37.5814 11.8134 41.3214 13.7344 41.5742 15.4926C41.8271 17.2507 38.5098 17.0287 33.3318 19.88Z" fill="#FAFAFA"/>
<path d="M8.7571 20.7766C13.3405 24.0164 16.2019 27.2931 17.5539 29.0426C17.8083 29.3718 18.3426 29.1679 18.271 28.7581C17.7682 25.8824 16.1391 19.7607 11.1117 16.2498C5.43543 12.2856 1.5042 13.7768 1.05651 15.4957C0.608816 17.2146 3.93014 17.3646 8.7571 20.7766Z" fill="#FAFAFA"/>
<path fill-rule="evenodd" clip-rule="evenodd" d="M20.1321 24.299C19.5603 21.3303 18.3916 16.9121 16.0169 11.8411C15.1388 9.96595 14.2308 8.44217 13.4126 7.18509C9.36386 4.17118 5.99025 4.78884 5.13442 6.27623C4.51505 7.35267 5.5141 8.22229 7.34137 9.81285C8.71089 11.005 10.5457 12.602 12.513 14.9947C15.9593 19.1861 18.1291 23.0571 19.3959 25.7307C19.417 25.7753 19.4404 25.8174 19.4656 25.8571C19.8455 38.4992 17.518 55.0653 13.9568 63.5051C13.914 63.6065 13.8816 63.7078 13.8577 63.8153C13.4907 65.4665 14.9371 66.1703 15.6385 64.6311C19.6542 55.8181 21.3488 37.8576 21.1739 25.8778C21.2373 25.7581 21.2757 25.6162 21.28 25.453C21.2826 25.3554 21.2847 25.2565 21.2864 25.1563C20.8007 25.2191 20.2496 24.9092 20.1321 24.299Z" fill="#FAFAFA"/>
<path d="M18.5781 12.8689C20.0536 21.5776 19.8704 28.2566 19.7575 30.3686C19.7467 30.5702 19.9988 30.6621 20.1102 30.4937C21.5821 28.2683 26.5461 19.9325 24.9577 10.8709C23.3916 1.93625 18.3733 -0.335564 16.3635 0.837571C14.3537 2.01071 17.2844 5.23325 18.5781 12.8689Z" fill="#FAFAFA"/>
</svg>
